<svg width="19" height="16" viewBox="0 0 19 16" fill="none" xmlns="http://www.w3.org/2000/svg">
<path d="M18.8006 2.49876C18.1149 2.8028 17.3774 3.00843 16.6038 3.10027C17.3936 2.6271 17.9997 1.87841 18.2858 0.984833C17.5468 1.42321 16.7279 1.74122 15.8572 1.91264C15.1595 1.16965 14.1655 0.705322 13.0649 0.705322C10.9532 0.705322 9.24045 2.41804 9.24045 4.52977C9.24045 4.82953 9.27439 5.12131 9.33999 5.40139C6.16155 5.24195 3.34334 3.71948 1.45693 1.40495C1.12779 1.96968 0.938978 2.6271 0.938978 3.32788C0.938978 4.65441 1.61465 5.8255 2.64029 6.51116C2.01367 6.49148 1.42356 6.3195 0.908175 6.03229C0.907889 6.04854 0.907889 6.0648 0.907889 6.08077C0.907889 7.93382 2.22672 9.4794 3.97595 9.8305C3.65537 9.91834 3.31682 9.96483 2.96857 9.96483C2.72157 9.96483 2.48228 9.94116 2.24897 9.89667C2.73555 11.4157 4.14765 12.5215 5.82158 12.5526C4.51244 13.5785 2.86361 14.1897 1.07132 14.1897C0.763285 14.1897 0.458105 14.1718 0.159485 14.1361C1.8511 15.2216 3.86186 15.8545 6.02151 15.8545C13.0561 15.8545 16.903 10.027 16.903 4.97271C16.903 4.807 16.8993 4.64186 16.8919 4.47815C17.6397 3.93909 18.288 3.2657 18.8006 2.49876Z" fill="#F1F2F2" style="fill:#F1F2F2;fill:color(display-p3 0.9451 0.9490 0.9490);fill-opacity:1;"/>
</svg>
