<svg width="184" height="177" viewBox="0 0 184 177" fill="none" xmlns="http://www.w3.org/2000/svg">
<g clip-path="url(#clip0_1_303)">
<path d="M4.83998 128.32C3.39998 128.32 2.22998 129.5 2.22998 130.95C2.22998 132.4 3.39998 133.58 4.83998 133.58C6.27998 133.58 7.44998 132.4 7.44998 130.95C7.44998 129.5 6.27998 128.32 4.83998 128.32Z" fill="#FF5722" style="fill:#FF5722;fill:color(display-p3 1.0000 0.3412 0.1333);fill-opacity:1;"/>
<path d="M49.5 133.58C50.9415 133.58 52.11 132.403 52.11 130.95C52.11 129.498 50.9415 128.32 49.5 128.32C48.0586 128.32 46.89 129.498 46.89 130.95C46.89 132.403 48.0586 133.58 49.5 133.58Z" fill="#FF5722" style="fill:#FF5722;fill:color(display-p3 1.0000 0.3412 0.1333);fill-opacity:1;"/>
<path d="M27.17 128.32C25.73 128.32 24.56 129.5 24.56 130.95C24.56 132.4 25.73 133.58 27.17 133.58C28.61 133.58 29.78 132.4 29.78 130.95C29.78 129.5 28.61 128.32 27.17 128.32Z" fill="#FF5722" style="fill:#FF5722;fill:color(display-p3 1.0000 0.3412 0.1333);fill-opacity:1;"/>
<path d="M26.8 106.94C25.36 106.94 24.19 108.12 24.19 109.57C24.19 111.02 25.36 112.2 26.8 112.2C28.24 112.2 29.41 111.02 29.41 109.57C29.41 108.12 28.24 106.94 26.8 106.94Z" fill="#FF5722" style="fill:#FF5722;fill:color(display-p3 1.0000 0.3412 0.1333);fill-opacity:1;"/>
<path d="M4.46999 106.94C3.02998 106.94 1.85999 108.12 1.85999 109.57C1.85999 111.02 3.02998 112.2 4.46999 112.2C5.90999 112.2 7.07999 111.02 7.07999 109.57C7.07999 108.12 5.90999 106.94 4.46999 106.94Z" fill="#FF5722" style="fill:#FF5722;fill:color(display-p3 1.0000 0.3412 0.1333);fill-opacity:1;"/>
<path d="M71.46 106.94C70.02 106.94 68.85 108.12 68.85 109.57C68.85 111.02 70.02 112.2 71.46 112.2C72.9 112.2 74.07 111.02 74.07 109.57C74.07 108.12 72.9 106.94 71.46 106.94Z" fill="#FF5722" style="fill:#FF5722;fill:color(display-p3 1.0000 0.3412 0.1333);fill-opacity:1;"/>
<path d="M49.13 106.94C47.69 106.94 46.52 108.12 46.52 109.57C46.52 111.02 47.69 112.2 49.13 112.2C50.57 112.2 51.74 111.02 51.74 109.57C51.74 108.12 50.57 106.94 49.13 106.94Z" fill="#FF5722" style="fill:#FF5722;fill:color(display-p3 1.0000 0.3412 0.1333);fill-opacity:1;"/>
<path d="M4.83998 171.1C3.39998 171.1 2.22998 172.28 2.22998 173.73C2.22998 175.18 3.39998 176.36 4.83998 176.36C6.27998 176.36 7.44998 175.18 7.44998 173.73C7.44998 172.28 6.27998 171.1 4.83998 171.1Z" fill="#FF5722" style="fill:#FF5722;fill:color(display-p3 1.0000 0.3412 0.1333);fill-opacity:1;"/>
<path d="M26.8 149.71C25.36 149.71 24.19 150.89 24.19 152.34C24.19 153.79 25.36 154.97 26.8 154.97C28.24 154.97 29.41 153.79 29.41 152.34C29.41 150.89 28.24 149.71 26.8 149.71Z" fill="#FF5722" style="fill:#FF5722;fill:color(display-p3 1.0000 0.3412 0.1333);fill-opacity:1;"/>
<path d="M4.46999 149.71C3.02998 149.71 1.85999 150.89 1.85999 152.34C1.85999 153.79 3.02998 154.97 4.46999 154.97C5.90999 154.97 7.07999 153.79 7.07999 152.34C7.07999 150.89 5.90999 149.71 4.46999 149.71Z" fill="#FF5722" style="fill:#FF5722;fill:color(display-p3 1.0000 0.3412 0.1333);fill-opacity:1;"/>
<path d="M93.42 85.55C91.98 85.55 90.81 86.73 90.81 88.18C90.81 89.63 91.98 90.81 93.42 90.81C94.86 90.81 96.03 89.63 96.03 88.18C96.03 86.73 94.86 85.55 93.42 85.55Z" fill="#FF5722" style="fill:#FF5722;fill:color(display-p3 1.0000 0.3412 0.1333);fill-opacity:1;"/>
<path d="M48.76 85.55C47.32 85.55 46.15 86.73 46.15 88.18C46.15 89.63 47.32 90.81 48.76 90.81C50.2 90.81 51.37 89.63 51.37 88.18C51.37 86.73 50.2 85.55 48.76 85.55Z" fill="#FF5722" style="fill:#FF5722;fill:color(display-p3 1.0000 0.3412 0.1333);fill-opacity:1;"/>
<path d="M71.09 90.81C72.5314 90.81 73.7 89.6326 73.7 88.18C73.7 86.7275 72.5314 85.55 71.09 85.55C69.6485 85.55 68.48 86.7275 68.48 88.18C68.48 89.6326 69.6485 90.81 71.09 90.81Z" fill="#FF5722" style="fill:#FF5722;fill:color(display-p3 1.0000 0.3412 0.1333);fill-opacity:1;"/>
<path d="M26.42 85.55C24.98 85.55 23.81 86.73 23.81 88.18C23.81 89.63 24.98 90.81 26.42 90.81C27.86 90.81 29.03 89.63 29.03 88.18C29.03 86.73 27.87 85.55 26.42 85.55Z" fill="#FF5722" style="fill:#FF5722;fill:color(display-p3 1.0000 0.3412 0.1333);fill-opacity:1;"/>
<path d="M4.08998 85.55C2.64998 85.55 1.47998 86.73 1.47998 88.18C1.47998 89.63 2.64998 90.81 4.08998 90.81C5.52998 90.81 6.69998 89.63 6.69998 88.18C6.69998 86.73 5.52998 85.55 4.08998 85.55Z" fill="#FF5722" style="fill:#FF5722;fill:color(display-p3 1.0000 0.3412 0.1333);fill-opacity:1;"/>
<path d="M93.04 64.16C91.6 64.16 90.43 65.34 90.43 66.79C90.43 68.24 91.6 69.42 93.04 69.42C94.48 69.42 95.65 68.24 95.65 66.79C95.65 65.34 94.48 64.16 93.04 64.16Z" fill="#FF5722" style="fill:#FF5722;fill:color(display-p3 1.0000 0.3412 0.1333);fill-opacity:1;"/>
<path d="M70.71 64.16C69.27 64.16 68.1 65.34 68.1 66.79C68.1 68.24 69.27 69.42 70.71 69.42C72.15 69.42 73.32 68.24 73.32 66.79C73.32 65.34 72.15 64.16 70.71 64.16Z" fill="#FF5722" style="fill:#FF5722;fill:color(display-p3 1.0000 0.3412 0.1333);fill-opacity:1;"/>
<path d="M48.38 64.16C46.94 64.16 45.77 65.34 45.77 66.79C45.77 68.24 46.94 69.42 48.38 69.42C49.82 69.42 50.99 68.24 50.99 66.79C50.99 65.34 49.82 64.16 48.38 64.16Z" fill="#FF5722" style="fill:#FF5722;fill:color(display-p3 1.0000 0.3412 0.1333);fill-opacity:1;"/>
<path d="M115.38 64.16C113.94 64.16 112.77 65.34 112.77 66.79C112.77 68.24 113.94 69.42 115.38 69.42C116.82 69.42 117.99 68.24 117.99 66.79C117.99 65.34 116.82 64.16 115.38 64.16Z" fill="#FF5722" style="fill:#FF5722;fill:color(display-p3 1.0000 0.3412 0.1333);fill-opacity:1;"/>
<path d="M3.71999 64.16C2.27999 64.16 1.10999 65.34 1.10999 66.79C1.10999 68.24 2.27999 69.42 3.71999 69.42C5.15999 69.42 6.32999 68.24 6.32999 66.79C6.32999 65.34 5.15999 64.16 3.71999 64.16Z" fill="#FF5722" style="fill:#FF5722;fill:color(display-p3 1.0000 0.3412 0.1333);fill-opacity:1;"/>
<path d="M26.05 64.16C24.61 64.16 23.44 65.34 23.44 66.79C23.44 68.24 24.61 69.42 26.05 69.42C27.49 69.42 28.66 68.24 28.66 66.79C28.66 65.34 27.49 64.16 26.05 64.16Z" fill="#FF5722" style="fill:#FF5722;fill:color(display-p3 1.0000 0.3412 0.1333);fill-opacity:1;"/>
<path d="M3.34999 42.77C1.90999 42.77 0.73999 43.95 0.73999 45.4C0.73999 46.85 1.90999 48.03 3.34999 48.03C4.78999 48.03 5.95999 46.85 5.95999 45.4C5.95999 43.95 4.78999 42.77 3.34999 42.77Z" fill="#FF5722" style="fill:#FF5722;fill:color(display-p3 1.0000 0.3412 0.1333);fill-opacity:1;"/>
<path d="M92.67 48.03C94.1115 48.03 95.28 46.8525 95.28 45.4C95.28 43.9475 94.1115 42.77 92.67 42.77C91.2285 42.77 90.06 43.9475 90.06 45.4C90.06 46.8525 91.2285 48.03 92.67 48.03Z" fill="#FF5722" style="fill:#FF5722;fill:color(display-p3 1.0000 0.3412 0.1333);fill-opacity:1;"/>
<path d="M137.33 48.03C138.771 48.03 139.94 46.8525 139.94 45.4C139.94 43.9475 138.771 42.77 137.33 42.77C135.889 42.77 134.72 43.9475 134.72 45.4C134.72 46.8525 135.889 48.03 137.33 48.03Z" fill="#FF5722" style="fill:#FF5722;fill:color(display-p3 1.0000 0.3412 0.1333);fill-opacity:1;"/>
<path d="M70.34 42.77C68.9 42.77 67.73 43.95 67.73 45.4C67.73 46.85 68.9 48.03 70.34 48.03C71.78 48.03 72.95 46.85 72.95 45.4C72.95 43.95 71.78 42.77 70.34 42.77Z" fill="#FF5722" style="fill:#FF5722;fill:color(display-p3 1.0000 0.3412 0.1333);fill-opacity:1;"/>
<path d="M48.01 42.77C46.57 42.77 45.4 43.95 45.4 45.4C45.4 46.85 46.57 48.03 48.01 48.03C49.45 48.03 50.62 46.85 50.62 45.4C50.62 43.95 49.45 42.77 48.01 42.77Z" fill="#FF5722" style="fill:#FF5722;fill:color(display-p3 1.0000 0.3412 0.1333);fill-opacity:1;"/>
<path d="M25.68 42.77C24.24 42.77 23.07 43.95 23.07 45.4C23.07 46.85 24.24 48.03 25.68 48.03C27.12 48.03 28.29 46.85 28.29 45.4C28.29 43.95 27.12 42.77 25.68 42.77Z" fill="#FF5722" style="fill:#FF5722;fill:color(display-p3 1.0000 0.3412 0.1333);fill-opacity:1;"/>
<path d="M115 42.77C113.56 42.77 112.39 43.95 112.39 45.4C112.39 46.85 113.56 48.03 115 48.03C116.44 48.03 117.61 46.85 117.61 45.4C117.61 43.95 116.44 42.77 115 42.77Z" fill="#FF5722" style="fill:#FF5722;fill:color(display-p3 1.0000 0.3412 0.1333);fill-opacity:1;"/>
<path d="M2.98 26.64C4.42146 26.64 5.59 25.4625 5.59 24.01C5.59 22.5575 4.42146 21.38 2.98 21.38C1.53853 21.38 0.369995 22.5575 0.369995 24.01C0.369995 25.4625 1.53853 26.64 2.98 26.64Z" fill="#FF5722" style="fill:#FF5722;fill:color(display-p3 1.0000 0.3412 0.1333);fill-opacity:1;"/>
<path d="M114.63 21.39C113.19 21.39 112.02 22.57 112.02 24.02C112.02 25.47 113.19 26.65 114.63 26.65C116.07 26.65 117.24 25.47 117.24 24.02C117.24 22.57 116.07 21.39 114.63 21.39Z" fill="#FF5722" style="fill:#FF5722;fill:color(display-p3 1.0000 0.3412 0.1333);fill-opacity:1;"/>
<path d="M25.31 21.39C23.87 21.39 22.7 22.57 22.7 24.02C22.7 25.47 23.87 26.65 25.31 26.65C26.75 26.65 27.92 25.47 27.92 24.02C27.92 22.57 26.75 21.39 25.31 21.39Z" fill="#FF5722" style="fill:#FF5722;fill:color(display-p3 1.0000 0.3412 0.1333);fill-opacity:1;"/>
<path d="M69.97 21.39C68.53 21.39 67.36 22.57 67.36 24.02C67.36 25.47 68.53 26.65 69.97 26.65C71.41 26.65 72.58 25.47 72.58 24.02C72.58 22.57 71.41 21.39 69.97 21.39Z" fill="#FF5722" style="fill:#FF5722;fill:color(display-p3 1.0000 0.3412 0.1333);fill-opacity:1;"/>
<path d="M47.64 21.39C46.2 21.39 45.03 22.57 45.03 24.02C45.03 25.47 46.2 26.65 47.64 26.65C49.08 26.65 50.25 25.47 50.25 24.02C50.25 22.57 49.08 21.39 47.64 21.39Z" fill="#FF5722" style="fill:#FF5722;fill:color(display-p3 1.0000 0.3412 0.1333);fill-opacity:1;"/>
<path d="M92.3 21.39C90.86 21.39 89.69 22.57 89.69 24.02C89.69 25.47 90.86 26.65 92.3 26.65C93.74 26.65 94.91 25.47 94.91 24.02C94.91 22.57 93.74 21.39 92.3 21.39Z" fill="#FF5722" style="fill:#FF5722;fill:color(display-p3 1.0000 0.3412 0.1333);fill-opacity:1;"/>
<path d="M159.29 21.39C157.85 21.39 156.68 22.57 156.68 24.02C156.68 25.47 157.85 26.65 159.29 26.65C160.73 26.65 161.9 25.47 161.9 24.02C161.9 22.57 160.74 21.39 159.29 21.39Z" fill="#FF5722" style="fill:#FF5722;fill:color(display-p3 1.0000 0.3412 0.1333);fill-opacity:1;"/>
<path d="M136.96 21.39C135.52 21.39 134.35 22.57 134.35 24.02C134.35 25.47 135.52 26.65 136.96 26.65C138.4 26.65 139.57 25.47 139.57 24.02C139.57 22.57 138.41 21.39 136.96 21.39Z" fill="#FF5722" style="fill:#FF5722;fill:color(display-p3 1.0000 0.3412 0.1333);fill-opacity:1;"/>
<path d="M24.94 5.24999C26.38 5.24999 27.55 4.06999 27.55 2.61999C27.55 1.16999 26.38 -0.0100098 24.94 -0.0100098C23.5 -0.0100098 22.33 1.16999 22.33 2.61999C22.33 4.06999 23.5 5.24999 24.94 5.24999Z" fill="#FF5722" style="fill:#FF5722;fill:color(display-p3 1.0000 0.3412 0.1333);fill-opacity:1;"/>
<path d="M2.61 5.25C4.05 5.25 5.22 4.07 5.22 2.62C5.22 1.17 4.04 0 2.61 0C1.18 0 0 1.18 0 2.63C0 4.08 1.17 5.26 2.61 5.26V5.25Z" fill="#FF5722" style="fill:#FF5722;fill:color(display-p3 1.0000 0.3412 0.1333);fill-opacity:1;"/>
<path d="M158.92 5.26C160.361 5.26 161.53 4.08251 161.53 2.63C161.53 1.17749 160.361 0 158.92 0C157.479 0 156.31 1.17749 156.31 2.63C156.31 4.08251 157.479 5.26 158.92 5.26Z" fill="#FF5722" style="fill:#FF5722;fill:color(display-p3 1.0000 0.3412 0.1333);fill-opacity:1;"/>
<path d="M91.93 5.24999C93.37 5.24999 94.54 4.06999 94.54 2.61999C94.54 1.16999 93.37 -0.0100098 91.93 -0.0100098C90.49 -0.0100098 89.32 1.16999 89.32 2.61999C89.32 4.06999 90.49 5.24999 91.93 5.24999Z" fill="#FF5722" style="fill:#FF5722;fill:color(display-p3 1.0000 0.3412 0.1333);fill-opacity:1;"/>
<path d="M114.26 5.24999C115.7 5.24999 116.87 4.06999 116.87 2.61999C116.87 1.16999 115.7 -0.0100098 114.26 -0.0100098C112.82 -0.0100098 111.65 1.16999 111.65 2.61999C111.65 4.06999 112.82 5.24999 114.26 5.24999Z" fill="#FF5722" style="fill:#FF5722;fill:color(display-p3 1.0000 0.3412 0.1333);fill-opacity:1;"/>
<path d="M136.59 5.24999C138.03 5.24999 139.2 4.06999 139.2 2.61999C139.2 1.16999 138.03 -0.0100098 136.59 -0.0100098C135.15 -0.0100098 133.98 1.16999 133.98 2.61999C133.98 4.06999 135.15 5.24999 136.59 5.24999Z" fill="#FF5722" style="fill:#FF5722;fill:color(display-p3 1.0000 0.3412 0.1333);fill-opacity:1;"/>
<path d="M47.27 5.24999C48.71 5.24999 49.88 4.06999 49.88 2.61999C49.88 1.16999 48.71 -0.0100098 47.27 -0.0100098C45.83 -0.0100098 44.66 1.16999 44.66 2.61999C44.66 4.06999 45.83 5.24999 47.27 5.24999Z" fill="#FF5722" style="fill:#FF5722;fill:color(display-p3 1.0000 0.3412 0.1333);fill-opacity:1;"/>
<path d="M181.25 5.24999C182.69 5.24999 183.86 4.06999 183.86 2.61999C183.86 1.16999 182.7 -0.0100098 181.25 -0.0100098C179.8 -0.0100098 178.64 1.16999 178.64 2.61999C178.64 4.06999 179.81 5.24999 181.25 5.24999Z" fill="#FF5722" style="fill:#FF5722;fill:color(display-p3 1.0000 0.3412 0.1333);fill-opacity:1;"/>
<path d="M69.6 5.24999C71.04 5.24999 72.21 4.06999 72.21 2.61999C72.21 1.16999 71.04 -0.0100098 69.6 -0.0100098C68.16 -0.0100098 66.99 1.16999 66.99 2.61999C66.99 4.06999 68.16 5.24999 69.6 5.24999Z" fill="#FF5722" style="fill:#FF5722;fill:color(display-p3 1.0000 0.3412 0.1333);fill-opacity:1;"/>
</g>
<defs>
<clipPath id="clip0_1_303">
<rect width="183.86" height="176.35" fill="white" style="fill:white;fill-opacity:1;"/>
</clipPath>
</defs>
</svg>
