<svg width="143" height="41" viewBox="0 0 143 41" fill="none" xmlns="http://www.w3.org/2000/svg">
<path fill-rule="evenodd" clip-rule="evenodd" d="M8.55273 4.09787C7.12207 5.09823 5.82837 6.28098 4.70532 7.6124C9.29462 7.18633 15.1252 7.88205 21.8944 11.2667C29.123 14.8809 34.9438 15.0031 38.9948 14.2217C38.6272 13.1088 38.1644 12.0392 37.6163 11.0224C32.979 11.5115 27.034 10.8641 20.1056 7.39998C15.706 5.20018 11.8278 4.29401 8.55273 4.09787ZM34.9074 7.16665C31.2453 3.075 25.9234 0.5 20 0.5C18.2605 0.5 16.5727 0.722107 14.9637 1.13948C17.1429 1.73409 19.4579 2.60399 21.8944 3.82227C26.967 6.35853 31.3464 7.17516 34.9074 7.16665ZM39.8609 18.1281C34.9669 19.0945 28.2088 18.896 20.1056 14.8444C12.53 11.0566 6.50043 11.1043 2.4339 12.008C2.224 12.0546 2.01904 12.1036 1.81903 12.1546C1.28662 13.3125 0.861634 14.5301 0.556702 15.7945C0.882386 15.7075 1.21893 15.6248 1.56616 15.5476C6.49957 14.4513 13.4701 14.4989 21.8944 18.7111C29.4701 22.4989 35.4996 22.4512 39.5662 21.5475C39.7055 21.5166 39.8428 21.4846 39.9778 21.4516C39.9926 21.1363 40 20.819 40 20.5C40 19.6975 39.9528 18.906 39.8609 18.1281ZM39.3248 25.6723C34.4783 26.5196 27.917 26.1944 20.1056 22.2888C12.53 18.501 6.50043 18.5487 2.4339 19.4524C1.53125 19.6529 0.719239 19.8972 0.00293 20.1551C0.000977 20.2698 0 20.3848 0 20.5C0 31.5457 8.95429 40.5 20 40.5C29.2571 40.5 37.0453 34.2109 39.3248 25.6723Z" fill="url(#paint0_linear_1_33)" style=""/>
<path d="M61.1599 28.5V15.78H56.4079V11.7H70.3279V15.78H65.5999V28.5H61.1599ZM74.4076 22.38C74.4076 21.084 74.6636 19.996 75.1756 19.116C75.7036 18.236 76.3676 17.572 77.1676 17.124C77.9676 16.676 78.7996 16.452 79.6636 16.452V20.676C78.9116 20.676 78.2076 20.748 77.5516 20.892C76.9116 21.02 76.3916 21.22 75.9916 21.492C75.6076 21.764 75.4156 22.092 75.4156 22.476L74.4076 22.38ZM71.0956 28.5V16.5H75.4156V28.5H71.0956ZM88.1114 28.5L87.9914 25.74V22.62C87.9914 22.06 87.9594 21.556 87.8954 21.108C87.8314 20.66 87.6714 20.308 87.4154 20.052C87.1594 19.796 86.7434 19.668 86.1674 19.668C85.7674 19.668 85.4394 19.764 85.1834 19.956C84.9274 20.148 84.7114 20.372 84.5354 20.628L80.7674 19.428C81.1034 18.772 81.5194 18.204 82.0154 17.724C82.5274 17.244 83.1194 16.876 83.7914 16.62C84.4794 16.348 85.2394 16.212 86.0714 16.212C87.3514 16.212 88.4474 16.444 89.3594 16.908C90.2714 17.372 90.9674 18.02 91.4474 18.852C91.9274 19.684 92.1674 20.652 92.1674 21.756V28.5H88.1114ZM84.9194 28.788C83.5274 28.788 82.4394 28.476 81.6554 27.852C80.8874 27.212 80.5034 26.3 80.5034 25.116C80.5034 23.868 80.8874 22.948 81.6554 22.356C82.4394 21.748 83.5274 21.444 84.9194 21.444H88.4474V23.916H86.6234C86.0634 23.916 85.6314 24.012 85.3274 24.204C85.0234 24.396 84.8714 24.668 84.8714 25.02C84.8714 25.26 84.9754 25.444 85.1834 25.572C85.3914 25.7 85.6794 25.764 86.0474 25.764C86.4474 25.764 86.7914 25.692 87.0794 25.548C87.3674 25.388 87.5914 25.172 87.7514 24.9C87.9114 24.612 87.9914 24.284 87.9914 23.916H89.1194C89.1194 25.468 88.7514 26.668 88.0154 27.516C87.2794 28.364 86.2474 28.788 84.9194 28.788ZM98.0082 28.5L102.232 16.5H106.696L101.872 28.5H98.0082ZM97.6002 28.5L92.7762 16.5H97.2402L101.464 28.5H97.6002ZM107.892 28.5V11.7H112.212V28.5H107.892ZM120.313 28.788C119.033 28.788 117.897 28.524 116.905 27.996C115.929 27.452 115.161 26.708 114.601 25.764C114.041 24.82 113.761 23.732 113.761 22.5C113.761 21.268 114.033 20.18 114.577 19.236C115.137 18.292 115.905 17.556 116.881 17.028C117.873 16.484 119.001 16.212 120.265 16.212C121.545 16.212 122.673 16.484 123.649 17.028C124.641 17.556 125.409 18.292 125.953 19.236C126.513 20.18 126.793 21.268 126.793 22.5C126.793 23.732 126.513 24.82 125.953 25.764C125.409 26.708 124.649 27.452 123.673 27.996C122.697 28.524 121.577 28.788 120.313 28.788ZM120.313 24.804C120.713 24.804 121.065 24.708 121.369 24.516C121.673 24.308 121.913 24.036 122.089 23.7C122.265 23.348 122.353 22.948 122.353 22.5C122.353 22.052 122.265 21.66 122.089 21.324C121.913 20.972 121.665 20.7 121.345 20.508C121.041 20.3 120.681 20.196 120.265 20.196C119.865 20.196 119.505 20.3 119.185 20.508C118.881 20.7 118.641 20.972 118.465 21.324C118.289 21.66 118.201 22.052 118.201 22.5C118.201 22.948 118.289 23.348 118.465 23.7C118.641 24.036 118.889 24.308 119.209 24.516C119.529 24.708 119.897 24.804 120.313 24.804ZM134.281 33.636C133.241 33.636 132.337 33.58 131.569 33.468C130.817 33.356 130.177 33.188 129.649 32.964C129.121 32.756 128.665 32.5 128.281 32.196L129.985 28.764C130.241 28.892 130.537 29.036 130.873 29.196C131.225 29.372 131.657 29.524 132.169 29.652C132.681 29.78 133.313 29.844 134.065 29.844C134.561 29.844 135.001 29.748 135.385 29.556C135.769 29.364 136.065 29.076 136.273 28.692C136.497 28.308 136.609 27.828 136.609 27.252V16.5H140.929V27.06C140.929 28.388 140.673 29.548 140.161 30.54C139.665 31.532 138.921 32.292 137.929 32.82C136.953 33.364 135.737 33.636 134.281 33.636ZM133.177 27.924C132.041 27.924 131.065 27.708 130.249 27.276C129.449 26.828 128.833 26.196 128.401 25.38C127.969 24.548 127.753 23.556 127.753 22.404C127.753 21.108 127.969 20.004 128.401 19.092C128.833 18.164 129.449 17.452 130.249 16.956C131.065 16.46 132.041 16.212 133.177 16.212C134.089 16.212 134.873 16.46 135.529 16.956C136.185 17.452 136.681 18.172 137.017 19.116C137.369 20.044 137.545 21.172 137.545 22.5C137.545 23.636 137.369 24.612 137.017 25.428C136.681 26.228 136.185 26.844 135.529 27.276C134.873 27.708 134.089 27.924 133.177 27.924ZM134.497 24.348C134.897 24.348 135.233 24.26 135.505 24.084C135.793 23.892 136.009 23.636 136.153 23.316C136.313 22.996 136.393 22.636 136.393 22.236C136.393 21.804 136.313 21.428 136.153 21.108C135.993 20.788 135.769 20.54 135.481 20.364C135.209 20.188 134.873 20.1 134.473 20.1C134.089 20.1 133.753 20.188 133.465 20.364C133.177 20.54 132.953 20.788 132.793 21.108C132.633 21.428 132.545 21.804 132.529 22.236C132.545 22.636 132.633 22.996 132.793 23.316C132.953 23.636 133.177 23.892 133.465 24.084C133.769 24.26 134.113 24.348 134.497 24.348Z" fill="#191825" style="fill:#191825;fill:color(display-p3 0.0980 0.0941 0.1451);fill-opacity:1;"/>
<defs>
<linearGradient id="paint0_linear_1_33" x1="36" y1="43.7" x2="-3.73321" y2="36.0931" gradientUnits="userSpaceOnUse">
<stop stop-color="#5D50C6" style="stop-color:#5D50C6;stop-color:color(display-p3 0.3647 0.3137 0.7765);stop-opacity:1;"/>
<stop offset="1" stop-color="#F85E9F" style="stop-color:#F85E9F;stop-color:color(display-p3 0.9725 0.3686 0.6235);stop-opacity:1;"/>
</linearGradient>
</defs>
</svg>
